<svg width="50" height="50" viewBox="0 0 50 50" fill="none" xmlns="http://www.w3.org/2000/svg">
<path d="M25 45.7292H35.4166V41.5625H25C15.9583 41.5625 8.33329 33.9375 8.33329 24.8958C8.33329 15.8542 15.9583 8.22917 25 8.22917C34.0416 8.22917 41.6666 15.8542 41.6666 24.8958V27.875C41.6666 29.5208 40.1875 31.1458 38.5416 31.1458C36.8958 31.1458 35.4166 29.5208 35.4166 27.875V24.8958C35.4166 19.1458 30.75 14.4792 25 14.4792C19.25 14.4792 14.5833 19.1458 14.5833 24.8958C14.5833 30.6458 19.25 35.3125 25 35.3125C27.875 35.3125 30.5 34.1458 32.375 32.25C33.7291 34.1042 36.0625 35.3125 38.5416 35.3125C42.6458 35.3125 45.8333 31.9792 45.8333 27.875V24.8958C45.8333 13.3958 36.5 4.0625 25 4.0625C13.5 4.0625 4.16663 13.3958 4.16663 24.8958C4.16663 36.3958 13.5 45.7292 25 45.7292ZM25 31.1458C21.5416 31.1458 18.75 28.3542 18.75 24.8958C18.75 21.4375 21.5416 18.6458 25 18.6458C28.4583 18.6458 31.25 21.4375 31.25 24.8958C31.25 28.3542 28.4583 31.1458 25 31.1458Z" fill="#F5F5F5"/>
</svg>
