<svg width="50" height="50" viewBox="0 0 50 50" fill="none" xmlns="http://www.w3.org/2000/svg">
<path d="M12.1333 7.56675L25 20.4334L37.8 7.63341C38.0828 7.33247 38.4234 7.09173 38.8014 6.92562C39.1794 6.75951 39.5871 6.67146 40 6.66675C40.8841 6.66675 41.7319 7.01794 42.357 7.64306C42.9822 8.26818 43.3334 9.11603 43.3334 10.0001C43.3411 10.4088 43.2653 10.8147 43.1105 11.193C42.9558 11.5713 42.7253 11.914 42.4333 12.2001L29.4667 25.0001L42.4333 37.9668C42.9827 38.5042 43.3049 39.232 43.3334 40.0001C43.3334 40.8841 42.9822 41.732 42.357 42.3571C41.7319 42.9822 40.8841 43.3334 40 43.3334C39.5752 43.351 39.1514 43.2801 38.7554 43.1252C38.3595 42.9703 38.0001 42.7347 37.7 42.4334L25 29.5667L12.1667 42.4001C11.885 42.691 11.5486 42.9232 11.1767 43.0834C10.8048 43.2436 10.4049 43.3286 10 43.3334C9.11596 43.3334 8.26811 42.9822 7.64299 42.3571C7.01787 41.732 6.66668 40.8841 6.66668 40.0001C6.65891 39.5914 6.73473 39.1855 6.8895 38.8071C7.04426 38.4288 7.2747 38.0861 7.56668 37.8001L20.5333 25.0001L7.56668 12.0334C7.0173 11.4959 6.69515 10.7681 6.66668 10.0001C6.66668 9.11603 7.01787 8.26818 7.64299 7.64306C8.26811 7.01794 9.11596 6.66675 10 6.66675C10.8 6.67675 11.5667 7.00008 12.1333 7.56675Z" fill="#F5F5F5"/>
</svg>
